<?xml version="1.0" standalone="no"?>
<!DOCTYPE svg PUBLIC "-//W3C//DTD SVG 20010904//EN"
 "http://www.w3.org/TR/2001/REC-SVG-20010904/DTD/svg10.dtd">
<svg version="1.0" xmlns="http://www.w3.org/2000/svg"
 width="456.000000pt" height="456.000000pt" viewBox="0 0 456.000000 456.000000"
 preserveAspectRatio="xMidYMid meet">
<metadata>
Created by potrace 1.14, written by Peter Selinger 2001-2017
</metadata>
<g transform="translate(0.000000,456.000000) scale(0.100000,-0.100000)"
fill="#000000" stroke="none">
<path d="M1852 4065 c-24 -7 -58 -20 -76 -29 -19 -9 -39 -16 -45 -16 -6 0 -11
-5 -11 -11 0 -5 -4 -7 -10 -4 -5 3 -10 1 -10 -6 0 -7 -3 -10 -6 -6 -3 3 -55
-24 -116 -59 -61 -35 -112 -64 -113 -64 -4 0 -418 -247 -430 -257 -6 -4 -24
-16 -40 -25 -17 -9 -59 -34 -94 -55 -35 -21 -71 -42 -80 -48 -86 -51 -361
-223 -380 -237 -13 -10 -27 -15 -32 -12 -5 3 -9 1 -9 -5 0 -6 -14 -18 -32 -27
-17 -9 -36 -20 -42 -25 -6 -5 -40 -28 -76 -52 -36 -23 -74 -50 -84 -60 -20
-17 -20 -17 0 -32 10 -8 25 -15 32 -15 6 0 12 -4 12 -9 0 -5 15 -14 33 -22 17
-7 48 -22 67 -34 32 -20 104 -59 285 -157 184 -99 269 -128 371 -128 65 0 185
27 196 44 4 6 8 8 8 4 0 -10 52 19 325 180 94 56 198 116 233 134 34 17 62 35
62 40 0 4 9 8 20 8 11 0 20 3 20 8 0 4 10 12 23 18 21 11 62 33 197 108 36 20
103 55 150 78 47 24 87 46 88 51 2 4 8 7 13 7 6 0 39 14 75 30 66 31 111 51
129 56 6 2 30 10 55 19 73 27 151 9 345 -81 33 -15 62 -28 65 -29 7 -2 83 -37
259 -121 84 -41 157 -74 162 -74 5 0 9 -4 9 -10 0 -5 9 -10 20 -10 11 0 20 -5
20 -10 0 -6 3 -9 8 -8 4 1 122 -55 262 -124 316 -156 401 -196 465 -218 88
-30 224 -12 272 36 20 20 26 69 12 104 -13 33 -53 57 -351 206 -114 57 -211
104 -216 104 -5 0 -15 7 -22 15 -7 9 -15 14 -17 11 -2 -2 -43 16 -91 40 -47
24 -92 44 -99 44 -7 0 -13 5 -13 10 0 6 -4 10 -10 10 -10 0 -91 38 -405 190
-82 40 -156 73 -162 73 -7 0 -13 4 -13 9 0 4 -4 8 -9 8 -6 0 -65 26 -133 59
-68 32 -145 68 -173 81 -27 12 -86 39 -130 60 -44 21 -111 53 -150 70 -38 18
-101 47 -140 65 -205 95 -253 110 -355 113 -41 0 -94 -5 -118 -13z"/>
<path d="M2611 3138 c-30 -5 -60 -13 -68 -19 -7 -6 -13 -8 -13 -3 0 4 -18 -12
-40 -36 -22 -24 -38 -45 -36 -48 2 -2 -2 -14 -8 -27 -14 -27 -13 -86 2 -126
20 -50 78 -105 122 -113 3 -1 10 -4 15 -7 6 -3 32 -5 59 -3 59 3 118 40 149
92 31 52 34 70 22 149 -7 49 -67 118 -112 129 -16 4 -30 10 -33 13 -3 4 -29 3
-59 -1z"/>
<path d="M3279 2966 c-35 -12 -81 -41 -124 -78 -11 -9 -33 -28 -50 -43 -16
-14 -48 -38 -70 -53 -22 -15 -49 -35 -59 -44 -11 -10 -23 -18 -27 -18 -5 0
-31 -14 -59 -30 -84 -50 -262 -101 -276 -79 -2 4 -11 6 -19 3 -41 -16 -285 85
-342 142 -8 7 -18 14 -22 14 -4 0 -17 8 -28 18 -11 9 -35 28 -53 42 -18 14
-57 44 -88 68 -30 23 -64 43 -76 44 -66 5 -113 4 -128 -3 -27 -14 -48 -39 -48
-58 0 -30 55 -102 162 -212 57 -58 122 -127 146 -153 l43 -47 -29 -27 c-118
-109 -267 -201 -352 -217 -19 -3 -59 -8 -89 -11 -30 -2 -57 -6 -59 -9 -2 -2
-15 0 -28 5 -16 6 -24 6 -24 -1 0 -6 -5 -7 -10 -4 -6 4 -41 8 -78 11 -62 5
-107 10 -107 14 0 1 -18 4 -40 6 -22 3 -87 16 -145 30 -186 45 -224 48 -280
23 -78 -35 -90 -107 -27 -173 38 -40 65 -54 172 -90 44 -15 98 -35 120 -45 22
-10 55 -24 73 -32 17 -8 32 -18 32 -22 0 -5 4 -6 9 -3 16 10 108 -89 116 -125
4 -19 10 -38 13 -44 3 -5 7 -23 8 -40 1 -16 2 -30 4 -30 1 0 4 -20 6 -45 2
-24 8 -57 13 -72 7 -19 7 -28 0 -28 -6 0 -7 -5 -4 -10 8 -13 13 -52 30 -255 8
-91 12 -137 20 -210 3 -33 8 -82 10 -110 9 -95 23 -201 31 -227 3 -9 7 -27 9
-39 3 -13 10 -29 17 -35 30 -30 151 -37 210 -13 23 9 40 37 54 84 5 20 33 140
38 165 27 140 53 282 62 345 1 11 3 20 4 20 1 0 3 9 4 20 2 11 6 38 10 60 4
22 9 51 11 65 9 57 55 317 61 345 3 17 7 41 9 55 2 14 4 25 5 25 2 0 4 10 13
55 14 65 69 170 101 192 6 4 8 8 4 8 -4 0 -1 8 6 18 8 9 31 37 51 62 60 76 75
92 76 83 0 -4 3 -17 5 -28 2 -11 6 -36 8 -55 2 -19 5 -35 6 -35 3 0 7 -34 14
-106 4 -37 8 -75 10 -85 2 -11 7 -48 11 -84 3 -36 8 -81 11 -100 2 -19 7 -57
9 -85 3 -27 8 -71 10 -98 3 -26 8 -71 11 -100 3 -28 7 -70 9 -92 2 -22 5 -56
8 -75 9 -54 20 -171 21 -212 1 -21 3 -38 6 -38 3 0 6 -12 7 -27 3 -47 19 -168
22 -168 1 0 4 -18 7 -40 6 -57 9 -74 23 -123 15 -53 38 -64 140 -63 89 0 115
15 126 68 5 21 9 43 11 48 4 18 13 69 19 110 4 22 9 54 11 70 7 38 15 119 17
167 1 21 4 38 7 38 3 0 5 12 6 28 1 27 11 138 19 197 10 77 20 169 30 273 3
31 7 73 9 92 5 36 11 93 22 190 3 30 8 69 9 85 2 17 4 30 5 30 1 0 3 14 4 30
3 28 11 80 23 150 3 17 6 36 6 43 0 6 2 12 5 12 6 0 37 -35 71 -80 14 -19 29
-37 32 -40 14 -12 99 -140 99 -149 0 -6 5 -11 11 -11 5 0 8 -4 5 -9 -4 -5 -1
-11 5 -13 5 -2 12 -15 14 -28 2 -14 16 -79 30 -145 14 -66 39 -199 55 -295 35
-210 37 -226 44 -265 14 -73 19 -102 22 -130 2 -16 6 -41 10 -55 3 -14 8 -36
10 -50 2 -14 9 -45 14 -70 5 -25 12 -56 14 -70 4 -20 23 -94 39 -155 10 -36
30 -54 69 -61 72 -13 157 -6 182 16 8 6 17 27 22 48 4 20 9 44 11 52 2 8 6 31
8 50 6 52 15 122 20 150 2 14 6 64 10 112 3 48 8 98 10 110 2 13 6 62 10 110
3 48 8 98 10 110 3 13 7 55 10 93 5 68 11 115 19 165 2 14 7 43 10 65 26 162
101 222 406 322 30 10 57 21 58 26 2 4 10 7 19 7 25 0 92 78 99 115 16 89 -90
140 -226 109 -219 -50 -237 -54 -275 -59 -16 -3 -48 -8 -70 -12 -22 -4 -107
-7 -190 -7 -126 -1 -158 2 -200 18 -71 28 -183 91 -205 116 -3 3 -23 19 -45
35 -22 16 -55 44 -72 62 l-32 32 32 34 c17 18 83 87 146 153 117 123 141 159
141 217 0 72 -52 100 -131 73z"/>
<path d="M1630 2734 c-110 -33 -168 -154 -122 -256 59 -134 220 -162 320 -57
52 56 65 135 33 206 -22 47 -71 95 -103 100 -12 2 -25 7 -28 11 -9 12 -53 10
-100 -4z"/>
<path d="M3537 2739 c-52 -12 -76 -26 -106 -62 -41 -48 -53 -86 -48 -144 6
-53 31 -101 72 -135 27 -22 102 -47 129 -42 11 2 31 6 42 8 69 14 144 109 144
182 0 40 -30 111 -60 143 -41 42 -114 63 -173 50z"/>
<path d="M629 1938 c-4 -93 -3 -518 1 -518 3 0 4 -28 4 -62 -2 -90 19 -124
136 -218 24 -19 58 -47 75 -61 16 -14 41 -34 53 -45 13 -10 38 -32 55 -47 18
-16 49 -40 70 -54 20 -14 37 -29 37 -32 0 -4 14 -15 31 -25 18 -10 40 -26 50
-35 25 -23 112 -85 147 -105 11 -7 12 18 7 131 -9 192 -10 208 -19 221 -4 7
-2 12 4 12 6 0 8 5 5 10 -4 6 -8 34 -10 63 -7 80 -15 169 -20 202 -3 17 -7 48
-10 70 -16 119 -28 161 -64 220 -27 45 -99 115 -118 115 -7 0 -13 4 -13 8 0
11 -163 88 -335 157 -11 5 -23 9 -27 9 -3 1 -10 4 -14 9 -4 4 -16 7 -26 7 -13
0 -18 -8 -19 -32z"/>
</g>
</svg>
